<?xml version="1.0" encoding="utf-8"?>
<!-- Generator: Adobe Illustrator 27.0.0, SVG Export Plug-In . SVG Version: 6.00 Build 0)  -->
<svg version="1.1" id="图层_1" xmlns="http://www.w3.org/2000/svg" xmlns:xlink="http://www.w3.org/1999/xlink" x="0px" y="0px"
	 viewBox="0 0 156.2 180.9" style="enable-background:new 0 0 156.2 180.9;" xml:space="preserve">
<style type="text/css">
	.st0{fill-rule:evenodd;clip-rule:evenodd;fill:url(#SVGID_1_);}
	.st1{fill:#FFFFFF;}
	.st2{font-family:'MVBoli';}
	.st3{font-size:35px;}
</style>
<g id="Marion_x5F_Shop">
	<linearGradient id="SVGID_1_" gradientUnits="userSpaceOnUse" x1="-7.441212e-04" y1="90.4647" x2="156.2403" y2="90.4647">
		<stop  offset="0" style="stop-color:#4CAB64"/>
		<stop  offset="0.4888" style="stop-color:#009E41"/>
		<stop  offset="1" style="stop-color:#00762E"/>
	</linearGradient>
	<path class="st0" d="M77.7,0c0.5-0.2,1.9,0.8,2.7,1.2c0.9,0.5,1.7,1,2.4,1.4c3.3,2,6.3,3.8,9.6,5.7c6.5,3.7,12.9,7.5,19.3,11.3
		c4.8,2.8,9.7,5.7,14.5,8.4c3.2,1.9,6.4,3.8,9.6,5.7c3.2,1.8,6.5,3.7,9.7,5.6c3.2,1.9,6.5,3.7,9.7,5.6c0.3,0.2,0.6,0.4,0.7,0.7
		c0.2,0.7,0,1.9,0,2.9c0,21.4,0,42.7,0.1,64.9c0,6.3,0.1,12.7,0.1,19.6c0,1.1,0.3,2.7-0.3,3.2c-0.5,0.5-1.8,1-2.5,1.4
		c-8.9,5.1-17.9,10.2-26.7,15.4c-12.8,7.5-25.9,14.9-38.9,22.4c-2.3,1.3-4.7,2.9-7.2,4.3c-0.7,0.4-2,1.3-2.5,1.3
		c-0.1,0-0.2-0.1-0.3-0.1c-22.5-12.9-44.7-26.4-67.4-39.1c-3.2-1.8-6.4-3.8-9.5-5.7c-0.3-0.2-0.6-0.2-0.7-0.6
		C0.1,122.2,0.1,108.7,0.1,96c0-9,0-18.6,0-28.1C0.1,61.2,0,54.7,0,48.2C0,47-0.1,45.7,0.2,45c6.3-3.9,12.9-7.4,19.3-11.3
		c6.4-3.9,13-7.4,19.4-11.2C51.8,14.9,64.7,7.5,77.7,0C77.7,0,77.7,0,77.7,0z M98.5,14c-4.9-2.9-9.8-5.7-14.6-8.6
		c-1.4-0.8-2.9-1.7-4.4-2.6c-0.6-0.4-1.4-0.9-1.8-0.7c-2,1-3.9,2.3-5.9,3.4c-2,1.1-3.9,2.2-5.9,3.4c-3.4,2-6.9,3.9-10.2,5.9
		c-0.5,0.3-1.1,0.5-1.4,1c0.2,0.5,0.8,0.7,1.3,1c6.9,4,13.7,8.1,20.6,12c0.5,0.3,1.2,0.8,1.6,0.8c0.6,0,1.6-0.8,2.3-1.2
		c5.2-3.1,10.4-6,15.5-9c1.5-0.9,3-1.7,4.4-2.6c0.5-0.3,1.1-0.5,1.4-1C100.5,15.1,99.4,14.6,98.5,14z M72.9,29
		c-3-1.7-5.8-3.5-8.8-5.2c-3.5-1.9-7-3.9-10.3-6c-0.5-0.3-1.3-1-1.8-0.8c-1,0.3-1.9,1.2-2.9,1.7c-3,1.7-5.7,3.4-8.7,5.1
		c-3.5,1.9-6.8,4-10.2,5.9c-0.5,0.3-1.1,0.5-1.3,1c0.9,0.7,1.9,1.3,2.8,1.8c6.5,3.6,12.6,7.4,19.1,11.1c0.5,0.3,1.1,0.8,1.6,0.8
		c0.3,0,1.1-0.5,1.6-0.8c1.5-0.9,3.1-1.8,4.4-2.6c5.4-3.2,10.9-6.2,16.2-9.3c0.5-0.3,1.1-0.5,1.4-1C74.9,30.1,73.9,29.6,72.9,29z
		 M124.2,29c-6.4-3.8-12.8-7.4-19.2-11.2c-0.7-0.4-1.3-0.9-1.8-0.7c-4,2.1-7.7,4.4-11.6,6.7c-1.9,1.1-3.9,2.2-5.8,3.4
		c-1.5,0.9-2.9,1.7-4.4,2.5c-0.5,0.3-1,0.5-1.3,1c0.8,0.8,1.9,1.2,2.8,1.8c6.3,3.8,12.7,7.4,19,11.2c0.4,0.2,1.3,0.8,1.6,0.8
		c0.3,0,1.1-0.6,1.5-0.8c5.4-3.3,10.9-6.3,16.3-9.4c1.5-0.9,3-1.8,4.4-2.6c0.5-0.3,1.1-0.4,1.4-1C126.3,30.1,125.2,29.6,124.2,29z
		 M26.4,32c-2,0.9-3.9,2.2-5.8,3.3C16.7,37.5,12.8,39.7,9,42c-1.5,0.9-3,1.6-4.3,2.6c-0.4,0.3-1,0.5-1.3,1c0.8,0.7,1.8,1.3,2.8,1.9
		c5,2.8,9.9,5.6,14.8,8.5c1.4,0.8,3,1.6,4.4,2.5c0.4,0.3,1.2,0.8,1.6,0.8c0.3,0,1.1-0.5,1.5-0.8c5.4-3.1,10.7-6.1,16-9.2
		c1-0.6,1.9-1.2,2.8-1.8c1-0.6,2.1-0.9,2.8-1.8c-0.8-0.7-1.9-1.2-2.8-1.8c-4.9-2.9-9.7-5.8-14.7-8.6c-2-1.1-3.9-2.4-5.9-3.4
		c0,0,0-0.1-0.1,0C26.5,32,26.5,31.9,26.4,32z M89.7,38.8c-3.3-2-6.7-4.1-10.1-6c-0.6-0.3-1.3-0.9-1.8-0.7c-1,0.4-2,1.1-3,1.7
		c-6.4,3.6-12.6,7.3-19.1,11c-0.3,0.2-1.3,0.7-1.3,1.1c0,0.3,0.9,0.7,1.4,1c0.5,0.3,1.1,0.6,1.5,0.9c7,4,13.6,7.9,20.5,11.8
		c4.1-2.1,7.9-4.5,11.8-6.7c3.5-2,7-3.9,10.3-5.9c0.4-0.3,1.1-0.6,1.3-1.1C97.7,43.3,93.7,41.3,89.7,38.8z M132.1,33.7
		c-0.9-0.6-2.1-1.5-3-1.7c-0.1,0-0.1,0.1-0.2,0c-7.2,4.4-14.7,8.4-21.9,12.7c-0.5,0.3-1,0.5-1.3,1c0.8,0.8,1.8,1.2,2.8,1.8
		c1,0.6,2,1.1,2.9,1.7c5.4,3.3,11.2,6.2,16.5,9.5c0.4,0.2,0.9,0.6,1.2,0.6c0.4,0,1.1-0.5,1.6-0.8c3.5-2,7-4,10.4-6
		c3.5-2,7-3.9,10.3-6c0.5-0.3,1.1-0.5,1.4-1C146.3,41.7,138.9,37.7,132.1,33.7z M73,58.9c-3-1.7-5.8-3.4-8.8-5.2
		c-3.4-2-6.9-3.9-10.4-5.9c-0.6-0.3-1.3-1-1.8-0.8c-1,0.5-1.9,1.1-2.9,1.7c-1,0.5-1.9,1.1-2.9,1.7c-1.9,1.2-3.8,2.2-5.8,3.3
		c-3.4,2-6.8,3.9-10.1,5.8c-0.5,0.3-1,0.5-1.3,1c0.8,0.8,1.9,1.2,2.8,1.8c1,0.6,2,1.2,3,1.7c6,3.3,11.7,7,17.6,10.3
		c2-1,4-2.1,5.9-3.3c5.3-3.2,10.8-6.3,16.1-9.3c0.5-0.3,1.1-0.4,1.4-1C75,59.9,74,59.4,73,58.9z M124.2,58.9c-1-0.5-1.9-1.2-2.9-1.8
		c-5.4-3.1-10.8-6.2-16.3-9.3c-0.6-0.3-1.3-1-1.8-0.8c-1,0.4-2,1.1-2.9,1.7c-2.9,1.7-5.8,3.4-8.7,5c-2.9,1.7-5.8,3.4-8.7,5.1
		c-1,0.6-2.1,1-2.8,1.8c0.7,0.8,1.9,1.2,2.8,1.8c5.9,3.6,12,7,17.9,10.5c0.7,0.4,1.9,1.4,2.7,1.4c0.4,0,1-0.5,1.5-0.8
		c7-3.9,13.9-8,20.7-12c0.5-0.3,1.1-0.5,1.4-1C126.2,59.8,125.2,59.4,124.2,58.9z M2,47.4c-0.1,1-0.1,2.2-0.1,3.3c0,1.1,0,2.3,0,3.3
		c0,6.2-0.2,12.7,0,18.8c0,0.6-0.1,1.3,0.1,1.6c0.1,0.3,0.8,0.7,1.3,1c1.5,0.9,3,1.8,4.4,2.6c5.5,3.2,10.9,6.3,16.4,9.4
		c0.5,0.3,0.9,0.8,1.6,0.7c0.2-9.3,0.1-18.2,0-27.3c-1.8-1.3-3.9-2.3-5.8-3.4C15.9,55.2,12,53,8.1,50.7c-1.8-1-4.1-2.5-5.9-3.4
		C2.1,47.3,2,47.3,2,47.4z M154.2,50.7c0-0.7,0.2-3-0.4-3.1c-0.3,0-1.3,0.7-1.7,0.9c-6.3,3.7-12.8,7.4-19,11c-1,0.5-2.1,0.9-2.8,1.8
		c0,8.9-0.2,18.4,0.1,27c1.1-0.3,2.1-0.9,3.1-1.5c5.9-3.4,11.9-6.9,17.8-10.3c1-0.6,2.1-1,2.9-1.8C154.3,67.3,154.2,58.5,154.2,50.7
		z M27.7,62.2c-0.2,0.6-0.1,2.3-0.1,3.3c0.2,8-0.2,16.1,0,23.9c1.1,0.9,2.3,1.6,3.6,2.3c3.1,1.8,6.2,3.7,9.3,5.3
		c0.6,0.3,1.2,0.9,1.9,1c0.4-2.4,0-5.6,0.2-8c0.5-0.7,1.4-1,2.1-1.4c0.7-0.4,1.5-0.9,2.2-1.4c0.8-0.4,1.5-0.9,2.3-1.3
		c0.7-0.4,1.6-0.8,2.1-1.5c0.1-2.1,0.1-4.2,0.1-6.4c0-0.7,0.1-1.6-0.1-2.1c-0.1-0.3-0.9-0.7-1.4-1c-3.4-2-6.9-4.1-10.2-6
		c-4.1-2.4-7.9-4.7-11.8-6.8c0,0-0.1,0-0.1,0C27.8,62.2,27.7,62.2,27.7,62.2z M125.1,64.2c-6,3.4-11.8,6.7-17.6,10.1
		c-1,0.6-2,1.1-2.9,1.8c0,7.6,0,15.8,0,23.7c0,1.1-0.1,2.3,0.2,3.4c0.5,0.1,0.9-0.4,1.3-0.6c6.5-3.8,13-7.4,19.5-11.2
		c0.9-0.6,2.2-0.9,2.8-1.9c0.1-8.5,0.1-17.1,0.1-25.5c0-0.5,0.2-1.1-0.2-1.6c0,0,0-0.1-0.1,0C127.2,62.9,126.2,63.6,125.1,64.2z
		 M77.1,69.3c0-2.1,0.1-4-0.1-6.1c-0.1-0.8-0.2-0.7-0.5-0.5c-6.8,3.8-13.8,7.9-20.5,11.8c-1,0.6-2.1,1-2.8,1.9c-0.1,1.2,0,2.6,0,3.9
		c0,1.1-0.2,2.2,0.1,3.1c0.8-0.2,1.4-0.6,2.1-1c4.6-2.6,9.1-5.3,13.7-7.8c2,1,3.9,2.3,5.8,3.4c0.6,0.4,1.3,0.8,2.1,1
		C77.2,75.8,77.1,72.8,77.1,69.3z M79.1,62.8C79,68.5,79,74.4,79.1,80c1.2,1,2.7,1.7,4.1,2.6c2.8,1.7,5.6,3.3,8.4,4.9
		c0.7,0.4,1.4,0.9,2.1,1.3c0.7,0.4,1.5,0.7,2,1.4c0.1,3-0.1,6.3,0.1,9.4c1.5,1.2,3.4,2,5.1,3.1c0.6,0.3,1.1,0.8,1.8,0.9
		c0.2-2.1,0.1-4.4,0.1-6.6c0-6.9,0.1-13.5-0.1-20.3c-0.8-0.8-1.9-1.2-2.8-1.8c-2.9-1.8-5.9-3.4-8.8-5.2c-3-1.8-5.7-3.5-8.7-5.2
		c-0.9-0.5-2.2-1.3-3.1-1.6C79.1,62.7,79.1,62.7,79.1,62.8z M2.1,77.2c-0.3,0.6-0.1,2.2-0.1,3.3c0,8.1,0,16,0.1,23.8
		c0.3,0.4,0.9,0.7,1.4,1c6.3,3.8,12.8,7.5,19.2,11.2c1,0.6,2,1.2,3.1,1.6c0.3-1.1,0.1-2.2,0.1-3.3c0-8.1,0-16.4,0-24
		c-1.8-1.3-3.8-2.4-5.8-3.5C14,83.9,8.1,80.5,2.2,77.1C2.2,77.1,2.1,77.1,2.1,77.2z M136.1,87.5c-1,0.5-2,1.1-3,1.7
		c-1,0.6-2.1,1-2.8,1.9c-0.1,9.1-0.1,18.4,0.1,27.5c0.6,0,1.1-0.4,1.6-0.7c7-3.9,14-8.1,20.9-12.1c0.5-0.3,1.1-0.5,1.4-1
		c0.1-8.4,0-17.5,0.1-26.1c0-0.5,0.2-1.1-0.3-1.5C147.9,80.6,142,84.1,136.1,87.5z M27.7,92.1c-0.2,0.7-0.1,2.3-0.1,3.4
		c0,7,0,13.9,0,20.7c0,1.1-0.2,2.7,0.1,3.4c0.2,0.4,0.8,0.6,1.4,1c3.5,2,7,4,10.3,6c3,1.7,5.9,3.6,8.8,5.2c1,0.6,1.9,1.3,3.1,1.6
		c0.3-2.2,0.1-4.9,0-7.3c-0.6-0.6-1.4-1-2.1-1.4c-1.6-0.9-2.9-1.7-4.5-2.7c-0.7-0.4-1.9-0.8-2.1-1.5c-0.2-0.5,0-1.6-0.1-2.3
		c0-0.9,0-1.7,0-2.5c-0.2-5.2,0.2-10.1,0-15.1c-1.1-0.9-2.3-1.5-3.6-2.2c-2.5-1.4-4.8-2.8-7.3-4.3c-1.1-0.6-2.6-1.7-3.8-2.1
		C27.8,92,27.7,92.1,27.7,92.1z M128.2,92.2c-2.1,1.1-4,2.3-6.1,3.4c-1.9,1-3.8,2.2-5.8,3.4c-2.8,1.6-5.8,3.4-8.7,5.1
		c-0.8,0.5-2.6,1.2-2.8,1.8c-0.3,0.8,0,2.3,0,3.4c0,7,0,14,0,20.8c0,1.1-0.1,2.3,0.2,3.4c0.6,0,1-0.4,1.5-0.7
		c6.4-3.8,12.9-7.4,19.3-11.1c1-0.6,2.1-1,2.8-1.9c0.1-8.5,0.1-17.5,0.1-26.1C128.5,93.2,128.6,92.5,128.2,92.2
		C128.2,92.2,128.2,92.2,128.2,92.2z M95.8,102.2c-0.1,1.5-0.1,3.5-0.1,5.1c0,0.5-0.1,1,0.2,1.5c0.6-0.1,1-0.5,1.5-0.8
		c1-0.6,1.9-1.1,2.9-1.7c0.5-0.3,1.1-0.5,1.4-1c-0.7-0.7-1.7-1.2-2.7-1.8c-0.8-0.5-2.1-1.2-3-1.6C95.9,102.1,95.9,102.1,95.8,102.2z
		 M2,107.1c-0.1,9-0.1,18.3,0,27.4c0.3,0.4,0.9,0.7,1.4,1c5.4,3.2,10.8,6.3,16.2,9.4c1.5,0.9,3,1.6,4.5,2.5c0.5,0.3,0.9,0.8,1.6,0.7
		c0.3-1.1,0.1-2.2,0.1-3.3c0-8.1-0.1-16.1-0.1-24.2c-1.8-1.3-3.9-2.3-5.8-3.5c-1.9-1.2-3.9-2.3-5.9-3.4c-2.9-1.6-5.8-3.6-8.8-5.2
		c-0.8-0.4-2.2-1.5-3.1-1.7C2.1,106.9,2,107,2,107.1z M97.3,110.3c-0.5,0.3-1.2,0.5-1.5,1.1c-0.2,3,0,6.3-0.1,9.3
		c-1.3,1-2.7,1.7-4.1,2.5c-3.5,2-7,4.1-10.5,6.1c-0.7,0.4-1.4,0.8-2,1.4c0,5.9-0.2,11.8,0.1,17.6c0.6-0.1,1.1-0.4,1.6-0.7
		c3.5-2,6.9-4,10.3-6c3.4-2,6.9-4.1,10.3-6c0.5-0.3,1.1-0.5,1.4-1c0-8.4,0.3-17.7,0-25.8c0-0.5,0.2-1.2-0.3-1.5
		C100.7,108.2,99,109.4,97.3,110.3z M132,147.8c3.7-2,6.8-3.9,10.4-6c2.7-1.6,6.2-3.4,8.9-5.1c0.6-0.4,2.6-1.2,2.9-1.9
		c0.3-0.7,0.1-2.4,0.1-3.4c0.1-1.3,0-2.5,0-3.6c-0.1-3.5,0.1-6.8,0-10c-0.1-2.9,0-5.9,0-8.9c0-0.7,0.1-1.5-0.4-1.5
		c-0.3,0-1.3,0.7-1.7,0.9c-6.4,3.7-12.7,7.4-19,11c-1,0.6-2,1-2.9,1.8c-0.1,4.6,0,9.3-0.1,13.9c0,4.6-0.1,9.1,0.1,13.4
		C131.1,148.4,131.6,148,132,147.8z M27.7,122.3c-0.2,7.6-0.1,15.7-0.1,23.6c0,1.1-0.2,2.6,0.1,3.4c0.1,0.3,0.9,0.7,1.4,1
		c7,4,13.8,8.1,20.7,12.1c0.5,0.3,1,0.7,1.6,0.7c0.3-2.1,0.1-4.3,0.1-6.6c0-6.9,0-13.8-0.1-20.6c-1.8-1.4-3.9-2.2-5.8-3.5
		c-1.8-1.3-3.9-2.3-5.9-3.5c-1.9-1.1-3.9-2.2-5.9-3.4c-1.8-1.1-4-2.5-6-3.4C27.7,122.2,27.7,122.2,27.7,122.3z M110.5,132.6
		c-1.5,0.8-2.9,1.8-4.4,2.6c-0.5,0.3-1.1,0.4-1.4,1c-0.1,8.5-0.1,18.3,0.1,27.2c1.1-0.3,2.1-1.1,3.1-1.6c3-1.7,5.9-3.4,8.9-5.1
		c3-1.7,6-3.3,8.9-5.1c1-0.6,2.1-1,2.8-1.9c0.1-8.9,0-17.5,0-25.6c0-0.5,0.1-1.1-0.1-1.6c0,0-0.1,0-0.1,0
		C122.3,125.8,116.3,129.2,110.5,132.6z M53.3,127.4c-0.1,2.2-0.1,4.9,0,7.2c1.9,1.3,3.8,2.4,5.8,3.6c5.5,3.1,11,6.3,16.4,9.4
		c0.5,0.3,1,0.7,1.6,0.7c0.3-0.6,0.2-1.3,0.2-1.9c0-4.8,0.1-9.9-0.2-14.5c-0.8,0-1.3,0.6-2,1c-1.3,0.8-2.5,1.4-3.9,2.2
		c-0.5,0.3-1.4,1.1-2,1.1c-0.4,0-1.5-0.7-2-1.1c-3.3-2.1-6.4-3.8-9.7-5.7c-1.2-0.7-2.8-1.8-4-2.2C53.4,127.2,53.3,127.3,53.3,127.4z
		 M53.3,137.3c-0.1,9.1-0.1,18.3,0.1,27c0.8,0.8,1.9,1.3,2.9,1.8c5.9,3.3,11.8,7,17.7,10.3c1,0.6,2,1.3,3.1,1.6
		c0.3-0.5,0.2-1,0.2-1.6c0-8.5,0-17.3-0.1-25.7c-0.8-0.8-1.9-1.3-2.9-1.8c-1-0.6-2-1.1-3-1.7c-4.9-2.9-9.8-5.6-14.8-8.5
		c-0.8-0.5-2.2-1.4-3.1-1.7C53.4,137.2,53.3,137.2,53.3,137.3z M102.8,138.4c0-0.5,0.1-1.1-0.4-1.1c-0.4,0-1.2,0.6-1.7,0.9
		c-1.5,0.9-3,1.7-4.4,2.5c-5.3,3.1-10.6,6.2-16,9.2c-0.5,0.3-1,0.5-1.3,1c-0.2,7.5-0.1,16.2,0,23.8c0,1.2-0.1,2.4,0.2,3.4
		c2.1-0.9,4-2.2,6-3.3c2-1.1,3.9-2.3,5.9-3.4c3-1.7,5.9-3.3,8.8-5.1c1-0.6,2-1,2.9-1.8C102.9,156.2,102.8,147,102.8,138.4z"/>
	<text transform="matrix(1 0 0 1 47.8889 119.8886)" class="st1 st2 st3">Yi</text>
</g>
<g id="Layer_1">
</g>
</svg>
